<svg xmlns="http://www.w3.org/2000/svg" width="250.047" height="41.075001" viewBox="0 0 66.158266 10.867761"><path d="M60.724 0H5.434A5.44 5.44 0 0 0 0 5.434a5.438 5.438 0 0 0 5.434 5.434h55.29a5.44 5.44 0 0 0 5.434-5.434A5.441 5.441 0 0 0 60.724 0" style="fill:#fddb45"/><path d="M34.79 4.056c.312 0 .53-.222.53-.539a.505.505 0 0 0-.53-.527h-2.486a.601.601 0 0 0-.624.622v3.682c0 .359.262.621.624.621.36 0 .622-.262.622-.621V6.128h1.522a.493.493 0 0 0 .514-.514.493.493 0 0 0-.514-.517h-1.522v-1.04ZM39.038 6.063l.063-.03c.584-.28.906-.784.906-1.42 0-.492-.165-.876-.502-1.17-.34-.305-.771-.453-1.315-.453h-1.63a.6.6 0 0 0-.622.622v3.681a.6.6 0 0 0 .622.622c.36 0 .621-.262.621-.622V6.27h.552l1.013 1.393c.003.003.006.005.008.01.125.16.29.242.487.242.344 0 .586-.245.586-.594a.699.699 0 0 0-.157-.412zm-1.013-.714h-.844V4.02h.844c.462 0 .736.25.736.666 0 .414-.274.664-.736.664M41.482 2.953c-.38 0-.644.262-.644.636v3.69a.611.611 0 0 0 .644.636c.375 0 .634-.262.634-.636v-3.69c0-.374-.26-.636-.634-.636M46.44 6.814h-2.01v-.936h1.615a.49.49 0 0 0 .344-.125.49.49 0 0 0 .15-.376.473.473 0 0 0-.494-.495H44.43v-.826h1.937c.312 0 .53-.222.53-.537a.506.506 0 0 0-.53-.529h-2.559a.601.601 0 0 0-.624.622v3.644c0 .362.263.624.624.624h2.631c.312 0 .53-.222.53-.537a.506.506 0 0 0-.53-.529M51.704 2.953c-.365 0-.61.242-.61.601v2.43l-1.767-2.61c-.187-.284-.424-.421-.726-.421-.482 0-.829.347-.829.824v3.531c0 .362.245.607.607.607.36 0 .601-.245.601-.607V4.785l1.832 2.708c0 .003.003.005.006.007.197.28.431.415.713.415.45 0 .774-.325.774-.772v-3.59a.575.575 0 0 0-.601-.6M57.142 3.684c-.516-.467-1.153-.696-1.949-.696h-1.2a.603.603 0 0 0-.625.624v3.644c0 .362.262.624.624.624h1.159c.79 0 1.437-.232 1.971-.711a2.281 2.281 0 0 0 .782-1.755c0-.699-.257-1.28-.762-1.73m-.896 2.743c-.274.26-.614.387-1.04.387h-.592V4.056h.591c.427 0 .767.125 1.041.387.277.262.412.587.412.99 0 .408-.135.732-.412.994M60.55 4.922l-.003-.002c-.387-.163-.57-.28-.644-.335H59.9a.427.427 0 0 1-.177-.344c0-.17.142-.345.462-.345.257 0 .502.083.724.237.095.068.237.15.384.15.287 0 .487-.212.487-.514 0-.277-.227-.432-.307-.484a2.246 2.246 0 0 0-1.28-.367c-.525 0-.94.132-1.271.41a1.25 1.25 0 0 0-.48 1.02c0 .629.37 1.11 1.101 1.428.422.184.697.327.842.434.157.12.237.25.237.39 0 .214-.205.371-.487.371-.332 0-.654-.112-.958-.337-.143-.1-.268-.15-.385-.15-.317 0-.522.203-.522.515 0 .175.075.314.238.444.411.342.926.507 1.57.507.541 0 .97-.14 1.32-.432a1.36 1.36 0 0 0 .504-1.068c0-.624-.454-1.138-1.353-1.528M14.06 6.922l-.002-.008-1.356-3.29c-.172-.422-.454-.639-.836-.651a.356.356 0 0 0-.105.01.346.346 0 0 0-.114.002c-.312.055-.552.27-.707.64l-1.4 3.372V7a.851.851 0 0 0-.09.347c0 .339.255.586.602.586.272 0 .471-.165.591-.497l.14-.396h1.982l.147.404c.115.33.317.49.622.49.367 0 .621-.258.621-.63 0-.095-.03-.22-.095-.382m-2.925-.84.646-1.768.64 1.767zM23.89 6.922c-.003-.003-.003-.006-.003-.008l-1.358-3.29c-.17-.422-.451-.639-.836-.651a.373.373 0 0 0-.105.01.431.431 0 0 0-.114.002c-.312.055-.55.27-.707.64l-1.4 3.374a.843.843 0 0 0-.087.347c0 .34.252.587.599.587.272 0 .471-.165.594-.497l.14-.397h1.979l.15.404c.112.33.317.49.619.49.367 0 .624-.257.624-.63 0-.094-.033-.219-.095-.381m-2.926-.841.647-1.768.636 1.768ZM28.632 3.66c-.486-.488-1.088-.725-1.837-.725-.746 0-1.355.242-1.862.742a2.434 2.434 0 0 0-.746 1.797c0 .701.242 1.3.729 1.787.484.47 1.103.709 1.837.709.746 0 1.353-.242 1.854-.736.5-.495.754-1.101.754-1.803 0-.706-.247-1.303-.729-1.772m-.896 2.776c-.26.267-.574.397-.963.397-.39 0-.704-.13-.961-.397-.257-.262-.382-.584-.382-.984 0-.396.125-.718.382-.983s.571-.394.96-.394c.39 0 .705.13.964.394.257.265.382.587.382.983 0 .4-.125.722-.382.984M5.501 2.97a.603.603 0 0 0-.621.624v3.717c0 .36.262.621.621.621.36 0 .622-.262.622-.621V3.594A.603.603 0 0 0 5.5 2.97M7.68 5.451l1.233-1.447a.644.644 0 0 0 .19-.442.567.567 0 0 0-.591-.592c-.21 0-.382.095-.537.295v.002l-1.6 2.002a.296.296 0 0 0 0 .367v.003l1.6 2v.002c.155.197.327.292.537.292a.565.565 0 0 0 .591-.589.654.654 0 0 0-.19-.444zM15.328 2.97a.603.603 0 0 0-.621.624v3.717c0 .36.262.621.621.621a.603.603 0 0 0 .624-.621V3.594a.603.603 0 0 0-.624-.624M17.507 5.451l1.236-1.447a.652.652 0 0 0 .187-.442.566.566 0 0 0-.591-.592c-.208 0-.382.095-.535.295-.002 0-.002 0-.002.002l-1.6 2v.002a.296.296 0 0 0 0 .367v.003l1.6 2s0 .002.002.002c.153.197.327.292.535.292.349 0 .591-.242.591-.589a.662.662 0 0 0-.187-.444zm0 0" style="fill:#fff"/></svg>